<svg xmlns="http://www.w3.org/2000/svg" viewBox="0 0 175.75 113.22"><defs><style>.cls-1{fill:#95a1c6;fill-rule:evenodd;}</style></defs><g id="Layer_2" data-name="Layer 2"><g id="Layer_1-2" data-name="Layer 1"><path class="cls-1" d="M25,113.22l7.14-36H43.83l-7.14,36Zm35.27-11.71h7.42l-2-13.28-5.42,13.28ZM43.83,113.22l17.7-36H73.1l7.14,36H69.53l-.72-4.29H57.39l-1.85,4.29Zm47.11,0,4.14-27H84.8l1.72-9.13h31.41l-1.72,9.13h-9.7l-4,27Zm39.26-11.71h7.43l-1.86-13.28-5.57,13.28Zm-16.27,11.71,17.56-36h11.56l7.29,36h-11l-.43-4.29H127.35l-1.86,4.29Zm61.82-76.67H120.92c-2,10.14-9,18.56-23,24.41,1.57,4.86,7,9.28,12.56,9.28h29.84c4.57,0,8.14-3.85,9.57-7H119.64c-1.86-.29-1.86-1.72-.14-2h29.84c3.85,0,7.28-3.29,9.28-6.86H124.07c-1.86-.28-1.86-1.71,0-2H158.9c3.57,0,6.71-4.14,8-6.86H128.63c-1.85-.28-1.85-2,0-2.14h39c3.14,0,6-3.28,8.14-6.85ZM0,36.55H54.82c2,10.14,9,18.56,23,24.41-1.57,4.86-7,9.28-12.56,9.28H35.41c-4.57,0-8.14-3.85-9.57-7H56.11c1.85-.29,1.85-1.72.14-2H26.41c-3.85,0-7.28-3.29-9.28-6.86H51.68c1.86-.28,1.86-1.71,0-2H16.85c-3.57,0-6.71-4.14-8-6.86H47.11c1.86-.28,1.86-2,0-2.14h-39c-3.14,0-6-3.28-8.14-6.85ZM70.1,6.28a25.38,25.38,0,0,0,6.71,4.29A35.32,35.32,0,0,1,85.09,0a27.58,27.58,0,0,0-15,6.28ZM60.39,26.41H72.67A36.5,36.5,0,0,1,76,12.28a30.34,30.34,0,0,1-7.42-4.57,27.77,27.77,0,0,0-8.14,18.7ZM87,14.85V26.41H74.67A34.08,34.08,0,0,1,77.81,13,28.14,28.14,0,0,0,87,14.85Zm18.7-8.57a25.38,25.38,0,0,1-6.71,4.29A37.16,37.16,0,0,0,90.66,0a27.58,27.58,0,0,1,15,6.28Zm9.71,20.13H103.08a40,40,0,0,0-3.14-14.13,32.6,32.6,0,0,0,7.28-4.57,28,28,0,0,1,8.14,18.7ZM88.94,14.85V26.41h12.14A31.34,31.34,0,0,0,97.94,13a28.13,28.13,0,0,1-9,1.86ZM70.1,48.4a24.87,24.87,0,0,1,6.71-4.14,35.25,35.25,0,0,0,8.28,10.56,27.76,27.76,0,0,1-15-6.42Zm-9.71-20H72.67A37.71,37.71,0,0,0,76,42.54a31,31,0,0,0-7.42,4.57,28.41,28.41,0,0,1-8.14-18.7ZM87,40V28.41H74.67a32.34,32.34,0,0,0,3.14,13.28A28,28,0,0,1,87,40Zm18.7,8.42a26.56,26.56,0,0,0-6.71-4.14,35.41,35.41,0,0,1-8.28,10.56,27.76,27.76,0,0,0,15-6.42Zm9.71-20H103.08a36.9,36.9,0,0,1-3.14,14.13,33.34,33.34,0,0,1,7.28,4.57,28.76,28.76,0,0,0,8.14-18.7ZM88.94,40V28.41h12.14a30.73,30.73,0,0,1-3.14,13.28,27.18,27.18,0,0,0-9-1.71ZM87,1.14a31.68,31.68,0,0,0-8.28,10.14A27.29,27.29,0,0,0,87,12.85V1.14Zm2,0a33.38,33.38,0,0,1,8.14,10.14,23.46,23.46,0,0,1-8.14,1.57V1.14ZM87,53.68a31.68,31.68,0,0,1-8.28-10.14A23.62,23.62,0,0,1,87,42V53.68Zm2,.14a35.78,35.78,0,0,0,8.14-10.28A27.54,27.54,0,0,0,88.94,42V53.82Z"/></g></g></svg>